<?xml version="1.0" encoding="UTF-8"?>
<!-- Generator: Adobe Illustrator 27.6.1, SVG Export Plug-In . SVG Version: 6.00 Build 0)  -->
<svg xmlns="http://www.w3.org/2000/svg" xmlns:xlink="http://www.w3.org/1999/xlink" version="1.1" x="0px" y="0px" viewBox="0 0 300 300" style="enable-background:new 0 0 300 300;" xml:space="preserve">
<style type="text/css">
	.st0{display:none;}
	.st1{display:inline;fill:#FFFFFF;}
	.st2{display:inline;fill:none;stroke:#009FE3;stroke-width:0.445;stroke-miterlimit:10;}
	.st3{display:inline;fill:#FFFFFF;}
	.st4{display:inline;}
	.st5{clip-path:url(#SVGID_00000094579357154813559290000011411611658005679534_);fill:#FFFFFF;}
	.st6{fill:#FFFFFF;}
	.st7{fill:none;stroke:#FFFFFF;stroke-width:0.2;stroke-miterlimit:10;}
</style>
<g id="Laag_1" class="st0">
	<path class="st1" d="M208.3,98.8h-53.9c-1.7,0-3.1-1.4-3.1-3.1c0-1.7,1.4-3.1,3.1-3.1h53.9c1.7,0,3.1,1.4,3.1,3.1   C211.4,97.4,210,98.8,208.3,98.8 M180.8,118.2h-27.9c-0.9,0-1.6-1.4-1.6-3.1c0-1.7,0.7-3.1,1.6-3.1h27.9c0.9,0,1.6,1.4,1.6,3.1   C182.4,116.8,181.7,118.2,180.8,118.2 M180.8,137.6h-27.9c-0.9,0-1.6-1.4-1.6-3.1c0-1.7,0.7-3.1,1.6-3.1h27.9   c0.9,0,1.6,1.4,1.6,3.1C182.4,136.2,181.7,137.6,180.8,137.6 M180.8,157h-27.9c-0.9,0-1.6-1.4-1.6-3.1s0.7-3.1,1.6-3.1h27.9   c0.9,0,1.6,1.4,1.6,3.1S181.7,157,180.8,157 M208.3,176.4h-53.9c-1.7,0-3.1-1.4-3.1-3.1c0-1.7,1.4-3.1,3.1-3.1h53.9   c1.7,0,3.1,1.4,3.1,3.1C211.4,175,210,176.4,208.3,176.4 M85.5,132.3c2.8,0.2,5.3,1.3,7.3,3.1c3.7-2.2,10.2-7,11.4-12   c0.5-2.2,1-6.3-1.8-9.9c-2.8-3.7-8.4-5.9-16.2-6.2c-4.6-0.2-8,0.7-9.6,2.5c-1.2,1.3-1.1,3-0.9,3.8c0.3,1.5,0.9,2,2.7,3.1   c2,1.3,4.7,3,6.2,7.2C85.8,127.2,85.8,130.1,85.5,132.3 M84.7,138.5c-3.1,0-5.7,2.6-5.7,5.7c0,3.1,2.6,5.7,5.7,5.7s5.7-2.6,5.7-5.7   C90.4,141.1,87.9,138.5,84.7,138.5 M59.3,135.9c-0.8,0-1.7,0.1-2.4,0.3c-2.1,0.6-6,2.1-7.9,6.2c-2,4.3-1.2,10.2,2.2,17.2   c2,4.2,4.4,6.8,6.7,7.3c1.7,0.4,3.1-0.4,3.8-1c1.2-0.9,1.3-1.7,1.5-3.9c0.2-2.4,0.4-5.6,3.4-8.9c2.3-2.6,4.9-4,7-4.7   c-0.5-1.3-0.7-2.7-0.7-4.2c0-1.2,0.2-2.3,0.5-3.3C70.4,139,64.3,135.9,59.3,135.9 M86.8,155.9c-0.5,4.3-0.6,12.3,2.6,16.3   c1.4,1.7,4.4,4.6,8.9,4.6h0c4.7,0,9.8-3.2,14.7-9.1c3-3.6,4.3-6.8,3.9-9.1c-0.4-1.8-1.7-2.7-2.5-3.1c-1.4-0.7-2.1-0.5-4.2,0.3   c-2.2,0.8-5.3,1.9-9.5,0.6c-3.2-1-5.5-2.8-7.1-4.3C91.9,154,89.5,155.4,86.8,155.9 M98.3,183L98.3,183c-5.3,0-10.2-2.5-13.8-6.9   c-5-6.1-4.5-16.3-4-20.8c-1.1-0.4-2.1-1-3-1.7c-1.1,0.2-4,0.8-6.4,3.6c-1.6,1.7-1.7,3.2-1.8,5.2c-0.2,2.4-0.4,5.6-3.8,8.3   c-2.6,2.1-5.9,2.9-9,2.2c-4.3-1-7.9-4.5-10.9-10.6c-5.3-11-4.2-18.3-2.2-22.5c2.2-4.8,6.4-8.2,11.9-9.6c8.2-2.1,17.9,3.3,21.2,5.4   c0.7-0.6,1.4-1.2,2.2-1.7c0,0,0,0,0,0c0-0.1,1.6-3.5,0.1-7.7c-0.8-2.2-2-3-3.7-4.1c-2-1.3-4.7-3-5.5-7.2c-0.6-3.3,0.2-6.6,2.3-9   c2.9-3.3,7.7-4.9,14.5-4.6c12.2,0.5,18.1,4.9,20.9,8.6c3.2,4.2,4.2,9.5,2.9,15.1c-1.8,7.7-10.2,13.5-14.1,15.8   c0.3,1.1,0.5,2.3,0.5,3.5c0,0.5,0,1-0.1,1.5c0,0,0,0,0,0c0,0.1,1.8,3.4,6.1,4.8c2.2,0.7,3.6,0.2,5.5-0.5c2.2-0.8,5.3-1.9,9.1,0   c3,1.5,5.1,4.2,5.7,7.3c0.9,4.3-0.8,9.1-5.1,14.3C110,181,102.9,183,98.3,183 M84.7,98.8c-25,0-45.4,20.4-45.4,45.4   c0,25.1,20.4,45.4,45.4,45.4c25,0,45.4-20.4,45.4-45.4C130.1,119.2,109.7,98.8,84.7,98.8 M84.7,195.8c-28.4,0-51.6-23.2-51.6-51.6   c0-28.5,23.1-51.6,51.6-51.6c28.4,0,51.5,23.2,51.5,51.6C136.3,172.7,113.2,195.8,84.7,195.8 M208.3,195.8h-53.9   c-1.7,0-3.1-1.4-3.1-3.1c0-1.7,1.4-3.1,3.1-3.1h53.9c1.7,0,3.1,1.4,3.1,3.1C211.4,194.4,210,195.8,208.3,195.8 M225.4,126.5V75   c0-2.1-1.7-3.8-3.8-3.8H22.9c-2.1,0-3.8,1.7-3.8,3.8v138.4c0,2.1,1.7,3.8,3.8,3.8h198.7c2.1,0,3.8-1.7,3.8-3.8v-74.7 M225.4,138.7   v-12.2 M231.6,130.7v7.5 M231.6,138.2v75.2c0,5.5-4.4,9.9-9.9,9.9H22.9c-5.5,0-9.9-4.5-9.9-9.9V75c0-5.5,4.4-9.9,9.9-9.9h198.7   c5.5,0,9.9,4.5,9.9,9.9v51.5"></path>
	<path class="st2" d="M208.3,98.8 M208.3,98.8h-53.9c-1.7,0-3.1-1.4-3.1-3.1c0-1.7,1.4-3.1,3.1-3.1h53.9c1.7,0,3.1,1.4,3.1,3.1   C211.4,97.4,210,98.8,208.3,98.8z M180.8,118.2h-27.9c-0.9,0-1.6-1.4-1.6-3.1c0-1.7,0.7-3.1,1.6-3.1h27.9c0.9,0,1.6,1.4,1.6,3.1   C182.4,116.8,181.7,118.2,180.8,118.2z M180.8,137.6h-27.9c-0.9,0-1.6-1.4-1.6-3.1c0-1.7,0.7-3.1,1.6-3.1h27.9   c0.9,0,1.6,1.4,1.6,3.1C182.4,136.2,181.7,137.6,180.8,137.6z M180.8,157h-27.9c-0.9,0-1.6-1.4-1.6-3.1s0.7-3.1,1.6-3.1h27.9   c0.9,0,1.6,1.4,1.6,3.1S181.7,157,180.8,157z M208.3,176.4h-53.9c-1.7,0-3.1-1.4-3.1-3.1c0-1.7,1.4-3.1,3.1-3.1h53.9   c1.7,0,3.1,1.4,3.1,3.1C211.4,175,210,176.4,208.3,176.4z M85.5,132.3c2.8,0.2,5.3,1.3,7.3,3.1c3.7-2.2,10.2-7,11.4-12   c0.5-2.2,1-6.3-1.8-9.9c-2.8-3.7-8.4-5.9-16.2-6.2c-4.6-0.2-8,0.7-9.6,2.5c-1.2,1.3-1.1,3-0.9,3.8c0.3,1.5,0.9,2,2.7,3.1   c2,1.3,4.7,3,6.2,7.2C85.8,127.2,85.8,130.1,85.5,132.3z M84.7,138.5c-3.1,0-5.7,2.6-5.7,5.7c0,3.1,2.6,5.7,5.7,5.7   s5.7-2.6,5.7-5.7C90.4,141.1,87.9,138.5,84.7,138.5z M59.3,135.9c-0.8,0-1.7,0.1-2.4,0.3c-2.1,0.6-6,2.1-7.9,6.2   c-2,4.3-1.2,10.2,2.2,17.2c2,4.2,4.4,6.8,6.7,7.3c1.7,0.4,3.1-0.4,3.8-1c1.2-0.9,1.3-1.7,1.5-3.9c0.2-2.4,0.4-5.6,3.4-8.9   c2.3-2.6,4.9-4,7-4.7c-0.5-1.3-0.7-2.7-0.7-4.2c0-1.2,0.2-2.3,0.5-3.3C70.4,139,64.3,135.9,59.3,135.9z M86.8,155.9   c-0.5,4.3-0.6,12.3,2.6,16.3c1.4,1.7,4.4,4.6,8.9,4.6h0c4.7,0,9.8-3.2,14.7-9.1c3-3.6,4.3-6.8,3.9-9.1c-0.4-1.8-1.7-2.7-2.5-3.1   c-1.4-0.7-2.1-0.5-4.2,0.3c-2.2,0.8-5.3,1.9-9.5,0.6c-3.2-1-5.5-2.8-7.1-4.3C91.9,154,89.5,155.4,86.8,155.9z M98.3,183L98.3,183   c-5.3,0-10.2-2.5-13.8-6.9c-5-6.1-4.5-16.3-4-20.8c-1.1-0.4-2.1-1-3-1.7c-1.1,0.2-4,0.8-6.4,3.6c-1.6,1.7-1.7,3.2-1.8,5.2   c-0.2,2.4-0.4,5.6-3.8,8.3c-2.6,2.1-5.9,2.9-9,2.2c-4.3-1-7.9-4.5-10.9-10.6c-5.3-11-4.2-18.3-2.2-22.5c2.2-4.8,6.4-8.2,11.9-9.6   c8.2-2.1,17.9,3.3,21.2,5.4c0.7-0.6,1.4-1.2,2.2-1.7c0,0,0,0,0,0c0-0.1,1.6-3.5,0.1-7.7c-0.8-2.2-2-3-3.7-4.1c-2-1.3-4.7-3-5.5-7.2   c-0.6-3.3,0.2-6.6,2.3-9c2.9-3.3,7.7-4.9,14.5-4.6c12.2,0.5,18.1,4.9,20.9,8.6c3.2,4.2,4.2,9.5,2.9,15.1   c-1.8,7.7-10.2,13.5-14.1,15.8c0.3,1.1,0.5,2.3,0.5,3.5c0,0.5,0,1-0.1,1.5c0,0,0,0,0,0c0,0.1,1.8,3.4,6.1,4.8   c2.2,0.7,3.6,0.2,5.5-0.5c2.2-0.8,5.3-1.9,9.1,0c3,1.5,5.1,4.2,5.7,7.3c0.9,4.3-0.8,9.1-5.1,14.3C110,181,102.9,183,98.3,183z    M84.7,98.8c-25,0-45.4,20.4-45.4,45.4c0,25.1,20.4,45.4,45.4,45.4c25,0,45.4-20.4,45.4-45.4C130.1,119.2,109.7,98.8,84.7,98.8z    M84.7,195.8c-28.4,0-51.6-23.2-51.6-51.6c0-28.5,23.1-51.6,51.6-51.6c28.4,0,51.5,23.2,51.5,51.6   C136.3,172.7,113.2,195.8,84.7,195.8z M208.3,195.8h-53.9c-1.7,0-3.1-1.4-3.1-3.1c0-1.7,1.4-3.1,3.1-3.1h53.9   c1.7,0,3.1,1.4,3.1,3.1C211.4,194.4,210,195.8,208.3,195.8z M225.4,126.5V75c0-2.1-1.7-3.8-3.8-3.8H22.9c-2.1,0-3.8,1.7-3.8,3.8   v138.4c0,2.1,1.7,3.8,3.8,3.8h198.7c2.1,0,3.8-1.7,3.8-3.8v-74.7 M225.4,138.7v-12.2 M231.6,130.7v7.5 M231.6,138.2v75.2   c0,5.5-4.4,9.9-9.9,9.9H22.9c-5.5,0-9.9-4.5-9.9-9.9V75c0-5.5,4.4-9.9,9.9-9.9h198.7c5.5,0,9.9,4.5,9.9,9.9v51.5"></path>
	<rect x="222.6" y="123.5" class="st3" width="19.5" height="66.2"></rect>
	<g class="st4">
		<defs>
			<rect id="SVGID_1_" x="186.2" y="94.8" width="107.7" height="100.2"></rect>
		</defs>
		<clipPath id="SVGID_00000152967300648197717140000003368224713288515502_">
			<use xlink:href="#SVGID_1_" style="overflow:visible;"></use>
		</clipPath>
		<path style="clip-path:url(#SVGID_00000152967300648197717140000003368224713288515502_);fill:#009FE3;" d="M289.7,96.4    c-4.4-3.1-10.5-2-13.6,2.4L235,157.3l-18.8-20.8c-3.6-4-9.8-4.3-13.8-0.7c-4,3.6-4.3,9.8-0.7,13.8l25.7,28.4    c0.7,1.2,1.6,2.3,2.8,3.2c1.6,1.1,3.3,1.5,5.1,1.6c0.2,0,0.5,0,0.7,0c0.8,0,1.6-0.1,2.4-0.3c0.7-0.2,1.3-0.4,2-0.7    c0.3-0.2,0.6-0.3,0.9-0.6c0.4-0.3,0.9-0.4,1.3-0.8c1-1,1.8-2.1,2.3-3.3l47.1-67.1C295.2,105.6,294.1,99.5,289.7,96.4"></path>
	</g>
</g>
<g id="Laag_2">
	<path class="st6" d="M122.1,77.3L122.1,77.3c-2.3,0.9-4.9-0.1-5.8-2.4c-0.9-2.2,0.2-4.9,2.4-5.8c2.5-1,5-1.8,7.3-2.5l0.3-0.1   c22.3-6.5,46.9-2.9,66.4,10c2.2,1.5,4.4,3.1,6.5,4.8l0.1,0.1c2.1,1.7,4.1,3.5,5.9,5.3c15.6,15.6,23.4,36,23.4,56.4   c0,16.8-5.3,33.6-15.8,47.7l11.1-1.1c2.4-0.3,4.6,1.5,4.9,3.9c0.2,2.5-1.5,4.7-4,4.9l-21.8,2.2c-1.4,0.2-3-0.2-4-1.2   c-0.9-0.9-1.2-1.9-1.3-3l-2.2-21.8c-0.2-2.5,1.5-4.7,4-4.9c2.4-0.3,4.6,1.5,4.9,4l1.2,12c9.5-12.5,14.2-27.6,14.3-42.6   c0-18.1-7-36.3-20.8-50.1c-1.7-1.7-3.4-3.3-5.2-4.7l-0.2-0.1c-1.8-1.5-3.8-2.9-5.7-4.2c-13.1-8.7-30.1-13.2-45.8-11.3   c-2.2,0.2-4.4,0.5-6.4,0.9l-0.3,0.1c-2.2,0.4-4.3,1-6.3,1.5l-0.4,0.1C126.3,75.8,124.1,76.5,122.1,77.3 M175.4,208.7L175.4,208.7   c2.2-1,4.8,0.1,5.8,2.4c0.9,2.2-0.2,4.9-2.5,5.8c-24.1,9.8-52.2,7.1-73.9-7.3c-2.3-1.5-4.5-3.1-6.5-4.7l-0.2-0.2   c-2-1.7-4-3.5-5.9-5.3C76.8,183.9,69,163.4,69,143c0-16.7,5.3-33.6,15.8-47.7l-11,1.1c-2.4,0.3-4.7-1.5-4.9-4   c-0.3-2.4,1.5-4.6,4-4.9l21.8-2.3c1.4-0.2,2.9,0.2,4,1.3c0.8,0.8,1.2,1.9,1.3,3l2.3,21.9c0.3,2.4-1.6,4.6-4,4.9   c-2.4,0.2-4.6-1.6-4.8-4l-1.2-12C82.7,113,77.9,128,78,143l0,0c0,18.1,6.9,36.2,20.8,50c1.7,1.7,3.5,3.4,5.2,4.8l0.1,0.1   c1.9,1.5,3.9,3,5.8,4.3c1.9,1.2,3.9,2.4,6,3.6c16.1,8.5,35.3,10.3,52.8,5.3l0.4-0.1C171.3,210.2,173.4,209.5,175.4,208.7"></path>
	<path class="st7" d="M122.1,77.3L122.1,77.3c-2.3,0.9-4.9-0.1-5.8-2.4c-0.9-2.2,0.2-4.9,2.4-5.8c2.5-1,5-1.8,7.3-2.5l0.3-0.1   c22.3-6.5,46.9-2.9,66.4,10c2.2,1.5,4.4,3.1,6.5,4.8l0.1,0.1c2.1,1.7,4.1,3.5,5.9,5.3c15.6,15.6,23.4,36,23.4,56.4   c0,16.8-5.3,33.6-15.8,47.7l11.1-1.1c2.4-0.3,4.6,1.5,4.9,3.9c0.2,2.5-1.5,4.7-4,4.9l-21.8,2.2c-1.4,0.2-3-0.2-4-1.2   c-0.9-0.9-1.2-1.9-1.3-3l-2.2-21.8c-0.2-2.5,1.5-4.7,4-4.9c2.4-0.3,4.6,1.5,4.9,4l1.2,12c9.5-12.5,14.2-27.6,14.3-42.6   c0-18.1-7-36.3-20.8-50.1c-1.7-1.7-3.4-3.3-5.2-4.7l-0.2-0.1c-1.8-1.5-3.8-2.9-5.7-4.2c-13.1-8.7-30.1-13.2-45.8-11.3   c-2.2,0.2-4.4,0.5-6.4,0.9l-0.3,0.1c-2.2,0.4-4.3,1-6.3,1.5l-0.4,0.1C126.3,75.8,124.1,76.5,122.1,77.3z M175.4,208.7L175.4,208.7   c2.2-1,4.8,0.1,5.8,2.4c0.9,2.2-0.2,4.9-2.5,5.8c-24.1,9.8-52.2,7.1-73.9-7.3c-2.3-1.5-4.5-3.1-6.5-4.7l-0.2-0.2   c-2-1.7-4-3.5-5.9-5.3C76.8,183.9,69,163.4,69,143c0-16.7,5.3-33.6,15.8-47.7l-11,1.1c-2.4,0.3-4.7-1.5-4.9-4   c-0.3-2.4,1.5-4.6,4-4.9l21.8-2.3c1.4-0.2,2.9,0.2,4,1.3c0.8,0.8,1.2,1.9,1.3,3l2.3,21.9c0.3,2.4-1.6,4.6-4,4.9   c-2.4,0.2-4.6-1.6-4.8-4l-1.2-12C82.7,113,77.9,128,78,143l0,0c0,18.1,6.9,36.2,20.8,50c1.7,1.7,3.5,3.4,5.2,4.8l0.1,0.1   c1.9,1.5,3.9,3,5.8,4.3c1.9,1.2,3.9,2.4,6,3.6c16.1,8.5,35.3,10.3,52.8,5.3l0.4-0.1C171.3,210.2,173.4,209.5,175.4,208.7z"></path>
	<path class="st6" d="M152.6,183.7l0-4.9l2.5,2.3c1.4,1.3,3.7,1.3,5.1,0c1.4-1.3,1.4-3.5,0-4.8l-6.9-6.5c-0.2-0.2-0.4-0.4-0.7-0.5   l0-13.9l10.3,9.8c-0.1,0.2-0.1,0.5-0.1,0.8l0,9.2c0,1.9,1.6,3.4,3.6,3.4c2,0,3.6-1.5,3.6-3.4l0-3.3l3.8,3.6c1.5,1.4,4,1.4,5.5,0   c1.5-1.4,1.5-3.8,0-5.2l-3.6-3.4l3.1,0c2,0,3.6-1.5,3.6-3.4c0-1.9-1.6-3.4-3.6-3.4l-9.8,0l-0.5,0l-10-9.4l14.3,0l0.3,0.4l6.9,6.5   c1.4,1.3,3.7,1.3,5.1,0c1.4-1.3,1.4-3.5,0-4.8l-2.2-2l4.9,0c2.2,0,3.9-1.7,3.9-3.7c0-1.4-0.8-2.7-2.1-3.3H108   c-1.2,0.6-2.1,1.8-2.1,3.2c0,2,1.7,3.7,3.9,3.7l5.1,0l-2.2,2.1c-1.4,1.3-1.4,3.5,0,4.8c1.4,1.3,3.7,1.3,5.1,0l6.9-6.5l0.4-0.4l14,0   l-10,9.4l-0.5,0l-9.8,0c-2,0-3.6,1.5-3.6,3.4c0,1.9,1.6,3.4,3.6,3.4l3.1,0l-3.4,3.3c-1.5,1.4-1.5,3.8,0,5.2c1.5,1.4,4,1.4,5.5,0   l3.7-3.5l0,3.3c0,1.9,1.6,3.4,3.6,3.4c2,0,3.6-1.5,3.6-3.4l0-9.2c0-0.3,0-0.5-0.1-0.8l10.1-9.5l0,13.8l-0.4,0.3l-6.9,6.5   c-1.4,1.3-1.4,3.5,0,4.8c1.4,1.3,3.7,1.3,5.1,0l2.2-2.1l0,4.6c0,2,1.7,3.7,3.9,3.7C150.8,187.4,152.6,185.8,152.6,183.7"></path>
	<polygon class="st6" points="123.7,139 106.2,133.1 108.4,127.1 125.9,132.9  "></polygon>
	<polygon class="st6" points="128.7,127.6 116.6,114.2 121.7,110 133.8,123.4  "></polygon>
	<polygon class="st6" points="139,120.1 135.5,102.8 142.1,101.6 145.6,118.9  "></polygon>
	<polygon class="st6" points="151.8,118.5 157.9,101.9 164.3,104 158.2,120.6  "></polygon>
	<polygon class="st6" points="163.8,123.3 177.8,111.8 182.2,116.6 168.2,128.1  "></polygon>
	<polygon class="st6" points="171.7,133.1 189.9,129.8 191.1,136.1 172.9,139.4  "></polygon>
</g>
</svg>
